<svg width="1200" height="320" viewBox="0 0 1200 320" xmlns="http://www.w3.org/2000/svg" role="img" aria-labelledby="title desc">
  <title id="title">EmergencyStorage banner</title>
  <desc id="desc">A simple banner for the EmergencyStorage project</desc>
  <defs>
    <linearGradient id="bg" x1="0" x2="1" y1="0" y2="1">
      <stop offset="0%" stop-color="#0d1b2a"/>
      <stop offset="100%" stop-color="#1b263b"/>
    </linearGradient>
    <linearGradient id="accent" x1="0" x2="1" y1="0" y2="0">
      <stop offset="0%" stop-color="#3a86ff"/>
      <stop offset="100%" stop-color="#00b894"/>
    </linearGradient>
  </defs>
  <rect width="1200" height="320" fill="url(#bg)" rx="28" />
  <rect x="32" y="40" width="1136" height="240" rx="24" fill="#0f2538" stroke="#254161" stroke-width="2" />
  <rect x="52" y="64" width="160" height="192" rx="18" fill="#132c46" stroke="#1e4b6e" stroke-width="2" />
  <circle cx="132" cy="140" r="54" fill="url(#accent)" opacity="0.85" />
  <path d="M92 196 L132 148 L172 196 Z" fill="#0d1b2a" opacity="0.75" />
  <rect x="228" y="88" width="420" height="12" rx="6" fill="#254161" />
  <rect x="228" y="116" width="340" height="12" rx="6" fill="#254161" />
  <rect x="228" y="144" width="520" height="12" rx="6" fill="#254161" />
  <rect x="228" y="172" width="280" height="12" rx="6" fill="#254161" />
  <rect x="228" y="200" width="480" height="12" rx="6" fill="#254161" />
  <rect x="228" y="228" width="260" height="12" rx="6" fill="#254161" />
  <text x="540" y="150" fill="#e9eef5" font-family="Inter, system-ui, -apple-system, Segoe UI, sans-serif" font-size="42" font-weight="700" text-anchor="middle">EmergencyStorage</text>
  <text x="540" y="192" fill="#b3c5d7" font-family="Inter, system-ui, -apple-system, Segoe UI, sans-serif" font-size="20" text-anchor="middle">Offline-first knowledge mirror for resilient communities</text>
  <rect x="820" y="92" width="330" height="176" rx="16" fill="#102439" stroke="#1f3c5c" stroke-width="2" />
  <rect x="840" y="120" width="132" height="16" rx="8" fill="url(#accent)" />
  <rect x="840" y="152" width="220" height="12" rx="6" fill="#254161" />
  <rect x="840" y="176" width="210" height="12" rx="6" fill="#254161" />
  <rect x="840" y="200" width="150" height="12" rx="6" fill="#254161" />
  <circle cx="1100" cy="126" r="6" fill="#f1fa8c" />
  <circle cx="1120" cy="126" r="6" fill="#80ed99" />
  <circle cx="1140" cy="126" r="6" fill="#ff6b6b" />
  <rect x="840" y="224" width="188" height="12" rx="6" fill="url(#accent)" opacity="0.75" />
</svg>
